<svg width="36" height="40" viewBox="0 0 36 40" fill="none" xmlns="http://www.w3.org/2000/svg">
    <path d="M18 22C23.5228 22 28 17.5228 28 12C28 6.47715 23.5228 2 18 2C12.4772 2 8 6.47715 8 12C8 17.5228 12.4772 22 18 22Z" fill="#ABABAB" stroke="#ABABAB" stroke-width="4" stroke-linecap="round" stroke-linejoin="round"/>
    <path d="M34 38C34 33.7565 32.3143 29.6869 29.3137 26.6863C26.3131 23.6857 22.2435 22 18 22C13.7565 22 9.68687 23.6857 6.68629 26.6863C3.68571 29.6869 2 33.7565 2 38" stroke="#ABABAB" stroke-width="4" stroke-linecap="round" stroke-linejoin="round"/>
    <path d="M18 22C13.7565 22 9.68687 23.6857 6.68629 26.6863C3.68571 29.6869 2 33.7565 2 38H34C34 33.7565 32.3143 29.6869 29.3137 26.6863C26.3131 23.6857 22.2435 22 18 22Z" fill="#ABABAB" stroke="#ABABAB" stroke-width="4" stroke-linecap="round" stroke-linejoin="round"/>
</svg>
